<?xml version="1.0" encoding="UTF-8"?>
<svg xmlns="http://www.w3.org/2000/svg" version="1.1" width="300" height="300" viewBox="0 0 300 300"><rect x="0" y="0" width="300" height="300" fill="#ffffff"/><g transform="scale(6.122)"><g transform="translate(0,0)"><path fill-rule="evenodd" d="M8 0L8 3L9 3L9 4L12 4L12 5L10 5L10 7L11 7L11 8L9 8L9 5L8 5L8 10L9 10L9 11L7 11L7 10L5 10L5 8L2 8L2 9L1 9L1 10L3 10L3 11L2 11L2 14L3 14L3 11L7 11L7 12L6 12L6 13L7 13L7 12L8 12L8 13L9 13L9 14L5 14L5 15L4 15L4 16L5 16L5 19L4 19L4 20L3 20L3 19L1 19L1 17L3 17L3 15L2 15L2 16L0 16L0 20L3 20L3 21L4 21L4 26L2 26L2 27L9 27L9 28L10 28L10 31L11 31L11 32L10 32L10 33L9 33L9 31L8 31L8 28L6 28L6 29L7 29L7 30L5 30L5 31L4 31L4 30L3 30L3 31L2 31L2 30L1 30L1 28L0 28L0 31L2 31L2 33L3 33L3 35L0 35L0 36L1 36L1 37L0 37L0 38L1 38L1 40L0 40L0 41L3 41L3 40L4 40L4 39L2 39L2 36L4 36L4 37L7 37L7 38L5 38L5 39L8 39L8 37L11 37L11 38L10 38L10 39L9 39L9 40L8 40L8 42L9 42L9 43L11 43L11 42L10 42L10 41L11 41L11 40L13 40L13 42L12 42L12 46L11 46L11 47L12 47L12 48L11 48L11 49L16 49L16 48L18 48L18 49L19 49L19 48L20 48L20 49L22 49L22 48L24 48L24 47L26 47L26 46L27 46L27 47L28 47L28 48L27 48L27 49L28 49L28 48L29 48L29 47L30 47L30 44L31 44L31 47L32 47L32 48L31 48L31 49L32 49L32 48L34 48L34 49L39 49L39 48L42 48L42 49L44 49L44 48L43 48L43 47L44 47L44 46L47 46L47 47L48 47L48 48L45 48L45 49L49 49L49 42L47 42L47 44L46 44L46 45L45 45L45 43L46 43L46 42L45 42L45 40L44 40L44 37L45 37L45 39L49 39L49 38L48 38L48 37L49 37L49 34L46 34L46 33L49 33L49 32L45 32L45 31L44 31L44 32L42 32L42 33L40 33L40 32L39 32L39 35L40 35L40 36L38 36L38 35L37 35L37 34L38 34L38 31L39 31L39 30L38 30L38 27L39 27L39 26L40 26L40 28L39 28L39 29L40 29L40 30L41 30L41 29L42 29L42 27L43 27L43 30L42 30L42 31L43 31L43 30L44 30L44 29L45 29L45 30L46 30L46 31L49 31L49 28L48 28L48 29L47 29L47 28L46 28L46 29L45 29L45 28L44 28L44 27L49 27L49 26L47 26L47 25L48 25L48 23L49 23L49 22L47 22L47 24L45 24L45 23L46 23L46 22L43 22L43 21L44 21L44 20L45 20L45 19L46 19L46 18L47 18L47 20L46 20L46 21L47 21L47 20L48 20L48 21L49 21L49 20L48 20L48 19L49 19L49 18L48 18L48 17L49 17L49 16L48 16L48 15L49 15L49 14L48 14L48 15L47 15L47 16L45 16L45 15L44 15L44 12L45 12L45 11L47 11L47 12L48 12L48 13L49 13L49 12L48 12L48 11L49 11L49 10L47 10L47 9L49 9L49 8L46 8L46 9L44 9L44 8L41 8L41 6L40 6L40 9L41 9L41 11L40 11L40 12L38 12L38 13L37 13L37 12L35 12L35 14L36 14L36 15L35 15L35 19L34 19L34 21L40 21L40 20L41 20L41 19L40 19L40 18L38 18L38 17L40 17L40 16L42 16L42 17L41 17L41 18L43 18L43 19L42 19L42 21L41 21L41 22L38 22L38 23L37 23L37 22L36 22L36 23L37 23L37 24L35 24L35 22L33 22L33 21L32 21L32 23L34 23L34 24L35 24L35 26L34 26L34 27L33 27L33 24L31 24L31 23L30 23L30 25L29 25L29 26L30 26L30 25L32 25L32 26L31 26L31 27L32 27L32 28L31 28L31 29L30 29L30 30L28 30L28 33L27 33L27 31L26 31L26 30L27 30L27 29L29 29L29 28L28 28L28 27L27 27L27 25L28 25L28 23L29 23L29 22L30 22L30 21L31 21L31 20L29 20L29 21L27 21L27 20L26 20L26 19L27 19L27 17L28 17L28 18L29 18L29 19L31 19L31 18L32 18L32 19L33 19L33 18L34 18L34 17L33 17L33 18L32 18L32 17L31 17L31 16L30 16L30 15L29 15L29 16L28 16L28 14L29 14L29 13L30 13L30 14L31 14L31 15L32 15L32 16L34 16L34 15L33 15L33 12L34 12L34 11L36 11L36 10L34 10L34 11L33 11L33 9L32 9L32 10L31 10L31 8L32 8L32 7L33 7L33 6L32 6L32 7L31 7L31 5L32 5L32 4L34 4L34 3L35 3L35 4L37 4L37 5L36 5L36 8L35 8L35 9L36 9L36 8L37 8L37 5L38 5L38 8L39 8L39 5L38 5L38 3L35 3L35 1L36 1L36 2L39 2L39 4L40 4L40 3L41 3L41 0L40 0L40 1L38 1L38 0L37 0L37 1L36 1L36 0L35 0L35 1L34 1L34 0L33 0L33 1L32 1L32 2L34 2L34 3L32 3L32 4L30 4L30 5L29 5L29 6L28 6L28 7L27 7L27 4L26 4L26 3L25 3L25 0L22 0L22 1L21 1L21 0L17 0L17 1L16 1L16 2L15 2L15 3L16 3L16 2L17 2L17 3L18 3L18 4L17 4L17 5L16 5L16 4L15 4L15 5L14 5L14 7L13 7L13 3L14 3L14 1L15 1L15 0L13 0L13 1L12 1L12 2L10 2L10 1L9 1L9 0ZM26 0L26 2L29 2L29 1L30 1L30 2L31 2L31 0L28 0L28 1L27 1L27 0ZM17 1L17 2L18 2L18 1ZM19 1L19 4L18 4L18 5L19 5L19 7L18 7L18 6L17 6L17 8L16 8L16 6L15 6L15 7L14 7L14 8L13 8L13 9L12 9L12 8L11 8L11 10L10 10L10 9L9 9L9 10L10 10L10 11L11 11L11 10L12 10L12 13L11 13L11 12L9 12L9 13L10 13L10 14L9 14L9 16L8 16L8 15L6 15L6 16L7 16L7 17L6 17L6 18L7 18L7 19L5 19L5 20L8 20L8 22L9 22L9 19L10 19L10 21L11 21L11 20L12 20L12 19L13 19L13 21L12 21L12 22L10 22L10 23L9 23L9 27L12 27L12 30L11 30L11 31L12 31L12 32L13 32L13 31L14 31L14 34L11 34L11 33L10 33L10 35L13 35L13 36L11 36L11 37L13 37L13 36L14 36L14 35L15 35L15 33L16 33L16 32L15 32L15 30L13 30L13 27L14 27L14 28L16 28L16 27L17 27L17 28L18 28L18 29L17 29L17 33L19 33L19 34L20 34L20 35L21 35L21 36L24 36L24 37L25 37L25 40L26 40L26 39L27 39L27 38L28 38L28 40L30 40L30 43L29 43L29 44L30 44L30 43L31 43L31 44L32 44L32 46L33 46L33 47L34 47L34 48L39 48L39 47L41 47L41 46L42 46L42 47L43 47L43 46L44 46L44 45L43 45L43 46L42 46L42 45L41 45L41 46L39 46L39 45L38 45L38 46L39 46L39 47L36 47L36 46L35 46L35 42L34 42L34 41L33 41L33 40L34 40L34 39L33 39L33 38L35 38L35 39L36 39L36 40L43 40L43 39L42 39L42 38L43 38L43 37L42 37L42 36L43 36L43 35L42 35L42 36L41 36L41 37L42 37L42 38L41 38L41 39L40 39L40 38L39 38L39 37L38 37L38 36L37 36L37 35L36 35L36 34L35 34L35 33L36 33L36 29L35 29L35 28L32 28L32 29L31 29L31 30L30 30L30 31L29 31L29 32L30 32L30 34L28 34L28 35L27 35L27 34L26 34L26 31L25 31L25 30L26 30L26 27L25 27L25 30L24 30L24 27L22 27L22 20L23 20L23 19L24 19L24 21L23 21L23 22L25 22L25 18L24 18L24 17L25 17L25 16L27 16L27 14L25 14L25 12L26 12L26 13L28 13L28 12L27 12L27 10L28 10L28 11L30 11L30 8L29 8L29 7L30 7L30 6L29 6L29 7L28 7L28 9L26 9L26 10L24 10L24 9L23 9L23 10L24 10L24 14L23 14L23 11L22 11L22 12L21 12L21 11L20 11L20 5L22 5L22 4L21 4L21 1ZM22 2L22 3L23 3L23 4L25 4L25 3L24 3L24 2ZM28 3L28 4L29 4L29 3ZM19 4L19 5L20 5L20 4ZM23 5L23 8L26 8L26 5ZM34 5L34 7L35 7L35 5ZM11 6L11 7L12 7L12 6ZM21 6L21 10L22 10L22 6ZM24 6L24 7L25 7L25 6ZM6 8L6 9L7 9L7 8ZM14 8L14 10L13 10L13 11L15 11L15 13L14 13L14 14L16 14L16 15L17 15L17 16L18 16L18 17L17 17L17 18L18 18L18 19L17 19L17 20L16 20L16 16L15 16L15 15L13 15L13 13L12 13L12 16L11 16L11 14L10 14L10 16L9 16L9 17L10 17L10 16L11 16L11 17L12 17L12 18L13 18L13 16L15 16L15 18L14 18L14 19L15 19L15 20L14 20L14 21L16 21L16 22L15 22L15 24L16 24L16 25L17 25L17 27L18 27L18 25L17 25L17 24L16 24L16 23L20 23L20 24L19 24L19 26L20 26L20 27L19 27L19 29L18 29L18 30L19 30L19 31L18 31L18 32L19 32L19 33L21 33L21 32L20 32L20 31L22 31L22 34L21 34L21 35L22 35L22 34L23 34L23 35L24 35L24 36L27 36L27 37L29 37L29 38L30 38L30 40L31 40L31 43L32 43L32 44L33 44L33 45L34 45L34 44L33 44L33 43L34 43L34 42L33 42L33 41L32 41L32 40L33 40L33 39L32 39L32 38L30 38L30 37L32 37L32 36L30 36L30 37L29 37L29 36L27 36L27 35L26 35L26 34L25 34L25 33L24 33L24 34L23 34L23 32L24 32L24 31L23 31L23 30L21 30L21 29L23 29L23 28L22 28L22 27L21 27L21 23L20 23L20 22L21 22L21 21L20 21L20 20L19 20L19 19L21 19L21 20L22 20L22 19L21 19L21 18L23 18L23 17L24 17L24 16L23 16L23 17L22 17L22 15L23 15L23 14L20 14L20 16L19 16L19 15L18 15L18 14L16 14L16 13L19 13L19 12L20 12L20 13L21 13L21 12L20 12L20 11L19 11L19 10L18 10L18 8L17 8L17 9L16 9L16 11L15 11L15 8ZM3 9L3 10L4 10L4 9ZM37 9L37 11L38 11L38 9ZM17 10L17 11L18 11L18 10ZM42 10L42 11L41 11L41 13L40 13L40 14L41 14L41 13L42 13L42 12L43 12L43 11L45 11L45 10ZM0 12L0 13L1 13L1 12ZM30 12L30 13L31 13L31 12ZM36 13L36 14L37 14L37 13ZM38 13L38 14L39 14L39 13ZM45 13L45 14L47 14L47 13ZM0 14L0 15L1 15L1 14ZM24 14L24 15L25 15L25 14ZM36 15L36 16L37 16L37 17L38 17L38 16L37 16L37 15ZM43 15L43 16L44 16L44 17L45 17L45 16L44 16L44 15ZM47 16L47 17L48 17L48 16ZM20 17L20 18L21 18L21 17ZM10 18L10 19L11 19L11 18ZM35 19L35 20L37 20L37 19ZM39 19L39 20L40 20L40 19ZM0 21L0 22L2 22L2 23L1 23L1 24L0 24L0 27L1 27L1 25L2 25L2 23L3 23L3 22L2 22L2 21ZM6 21L6 22L7 22L7 21ZM18 21L18 22L19 22L19 21ZM26 21L26 22L27 22L27 21ZM12 22L12 23L10 23L10 24L11 24L11 26L12 26L12 27L13 27L13 25L14 25L14 24L13 24L13 23L14 23L14 22ZM5 23L5 26L8 26L8 23ZM23 23L23 26L26 26L26 23ZM38 23L38 26L39 26L39 25L40 25L40 23ZM41 23L41 26L44 26L44 23ZM6 24L6 25L7 25L7 24ZM24 24L24 25L25 25L25 24ZM42 24L42 25L43 25L43 24ZM45 25L45 26L46 26L46 25ZM14 26L14 27L16 27L16 26ZM35 26L35 27L36 27L36 28L37 28L37 26ZM2 28L2 29L4 29L4 28ZM33 29L33 33L35 33L35 32L34 32L34 31L35 31L35 30L34 30L34 29ZM46 29L46 30L47 30L47 29ZM31 30L31 31L30 31L30 32L32 32L32 30ZM37 30L37 31L38 31L38 30ZM3 31L3 32L4 32L4 34L5 34L5 35L4 35L4 36L8 36L8 35L9 35L9 33L8 33L8 31L5 31L5 32L4 32L4 31ZM6 32L6 33L5 33L5 34L6 34L6 35L7 35L7 34L8 34L8 33L7 33L7 32ZM6 33L6 34L7 34L7 33ZM31 33L31 34L32 34L32 33ZM42 33L42 34L43 34L43 33ZM44 33L44 35L45 35L45 36L47 36L47 37L46 37L46 38L47 38L47 37L48 37L48 36L47 36L47 35L46 35L46 34L45 34L45 33ZM16 34L16 35L18 35L18 34ZM24 34L24 35L25 35L25 34ZM33 34L33 37L34 37L34 36L35 36L35 37L36 37L36 38L37 38L37 39L38 39L38 37L37 37L37 36L36 36L36 35L35 35L35 34ZM40 34L40 35L41 35L41 34ZM15 36L15 38L14 38L14 39L13 39L13 40L14 40L14 41L16 41L16 42L18 42L18 43L17 43L17 44L16 44L16 43L15 43L15 47L13 47L13 46L12 46L12 47L13 47L13 48L16 48L16 46L17 46L17 47L18 47L18 46L19 46L19 47L20 47L20 48L22 48L22 47L24 47L24 45L22 45L22 44L21 44L21 43L20 43L20 42L22 42L22 41L19 41L19 39L17 39L17 38L19 38L19 37L20 37L20 36L19 36L19 37L17 37L17 38L16 38L16 36ZM21 37L21 38L22 38L22 39L20 39L20 40L22 40L22 39L23 39L23 40L24 40L24 39L23 39L23 38L22 38L22 37ZM11 38L11 39L10 39L10 40L11 40L11 39L12 39L12 38ZM15 38L15 39L14 39L14 40L16 40L16 41L17 41L17 40L16 40L16 38ZM31 39L31 40L32 40L32 39ZM6 40L6 41L7 41L7 40ZM46 40L46 41L48 41L48 40ZM18 41L18 42L19 42L19 41ZM23 41L23 44L26 44L26 41ZM38 41L38 43L40 43L40 41ZM41 41L41 44L44 44L44 41ZM24 42L24 43L25 43L25 42ZM27 42L27 46L28 46L28 47L29 47L29 45L28 45L28 42ZM32 42L32 43L33 43L33 42ZM42 42L42 43L43 43L43 42ZM13 43L13 44L14 44L14 43ZM36 43L36 44L37 44L37 43ZM8 44L8 47L9 47L9 48L10 48L10 46L9 46L9 45L11 45L11 44ZM20 44L20 45L19 45L19 46L22 46L22 45L21 45L21 44ZM17 45L17 46L18 46L18 45ZM47 45L47 46L48 46L48 45ZM34 46L34 47L35 47L35 46ZM25 48L25 49L26 49L26 48ZM0 0L0 7L7 7L7 0ZM1 1L1 6L6 6L6 1ZM2 2L2 5L5 5L5 2ZM42 0L42 7L49 7L49 0ZM43 1L43 6L48 6L48 1ZM44 2L44 5L47 5L47 2ZM0 42L0 49L7 49L7 42ZM1 43L1 48L6 48L6 43ZM2 44L2 47L5 47L5 44Z" fill="#000000"/></g></g></svg>
